# xmcd CD database file
#
# Track frame offsets:
#	183
#	14795
#	31820
#	45903
#	62725
#	80203
#	95995
#	112750
#	130153
#	142443
#	163580
#
# Disc length: 2347 seconds
#
# Revision: 0
# Processed by: cddbd v1.5.1PL0 Copyright (c) Steve Scherf et al.
# Submitted via: CDex 1.51
#
DISCID=9a09290b
DTITLE=Sunnyland Slim - Slim's Got His Thing Goin' On
DYEAR=1968
DGENRE=Blues
TTITLE0=Going Back To Memphis
TTITLE1=Miss Bessie Mae
TTITLE2=Got To Get My Baby
TTITLE3=You Used To Love Me
TTITLE4=She's Got A Thing Going On
TTITLE5=Substitute Woman
TTITLE6=Dust My Broom
TTITLE7=Everytime We Get To Drinkin'
TTITLE8=Little Girl Blues
TTITLE9=Unlucky One
TTITLE10=My Past Life
EXTD=YEAR: 1968
EXTT0=
EXTT1=
EXTT2=
EXTT3=
EXTT4=
EXTT5=
EXTT6=
EXTT7=
EXTT8=
EXTT9=
EXTT10=
PLAYORDER=
